<?xml version="1.0" encoding="UTF-8"?>
<svg width="20px" height="19px" viewBox="0 0 20 19" version="1.1" xmlns="http://www.w3.org/2000/svg" xmlns:xlink="http://www.w3.org/1999/xlink">
    <!-- Generator: Sketch 50.2 (55047) - http://www.bohemiancoding.com/sketch -->
    <title>icon_wtgl_slice</title>
    <desc>Created with Sketch.</desc>
    <defs>
        <linearGradient x1="0%" y1="0%" x2="77.5486395%" y2="83.5476019%" id="linearGradient-1">
            <stop stop-color="#7D8FAF" offset="0%"></stop>
            <stop stop-color="#555E70" offset="100%"></stop>
        </linearGradient>
    </defs>
    <g id="币币交易" stroke="none" stroke-width="1" fill="none" fill-rule="evenodd">
        <g id="Artboard" transform="translate(-20.000000, -34.000000)" fill="url(#linearGradient-1)" fill-rule="nonzero">
            <g id="icon_wtgl" transform="translate(20.000000, 34.000000)">
                <path d="M12,8 L12,6 L14,6 L14,8 L16,8 L16,9 L14,9 L14,11 L12,11 L12,9 L4,9 L4,8 L12,8 Z M6,13 L6,11 L8,11 L8,13 L16,13 L16,14 L8,14 L8,16 L6,16 L6,14 L4,14 L4,13 L6,13 Z M18,4 L2,4 L2,17 L18,17 L18,4 Z M0,0 L20,0 L20,19 L0,19 L0,0 Z"></path>
            </g>
        </g>
    </g>
</svg>